<svg width="15" height="14" viewBox="0 0 15 14" fill="none" xmlns="http://www.w3.org/2000/svg">
<path d="M3.47562 2.59016C3.99655 2.13905 4.57967 1.78905 5.225 1.54016C5.88587 1.29127 6.57396 1.16683 7.28926 1.16683C8.08231 1.16683 8.84037 1.3185 9.56345 1.62183C10.2554 1.91739 10.8716 2.33544 11.412 2.876C11.9523 3.41655 12.3702 4.03294 12.6657 4.72516C12.9689 5.4485 13.1205 6.20683 13.1205 7.00016C13.1205 7.61461 13.0272 8.20961 12.8406 8.78516C12.6618 9.34516 12.4013 9.86627 12.0592 10.3485L10.2049 7.00016H11.9543C11.9543 6.15238 11.7404 5.36683 11.3128 4.6435C10.9007 3.9435 10.3448 3.38739 9.64508 2.97516C8.92201 2.54739 8.13673 2.3335 7.28926 2.3335C6.67503 2.3335 6.08413 2.45016 5.51656 2.6835C4.97231 2.90905 4.48637 3.22405 4.05875 3.6285L3.47562 2.59016ZM11.1029 11.4102C10.582 11.8613 9.99885 12.2113 9.35352 12.4602C8.69265 12.7091 8.00456 12.8335 7.28926 12.8335C6.49621 12.8335 5.73815 12.6818 5.01507 12.3785C4.3231 12.0829 3.70693 11.6649 3.16656 11.1243C2.6262 10.5838 2.2083 9.96739 1.91285 9.27516C1.60962 8.55183 1.45801 7.7935 1.45801 7.00016C1.45801 6.38572 1.55131 5.79072 1.73791 5.21516C1.91673 4.65516 2.1772 4.13405 2.5193 3.65183L4.37363 7.00016H2.62426C2.62426 7.84794 2.83807 8.6335 3.2657 9.35683C3.67777 10.0568 4.23368 10.6129 4.93343 11.0252C5.65651 11.4529 6.44178 11.6668 7.28926 11.6668C7.90348 11.6668 8.49438 11.5502 9.06196 11.3168C9.60621 11.0913 10.0921 10.7763 10.5198 10.3718L11.1029 11.4102Z" fill="#9CA3AF"/>
</svg>
