<svg width="19" height="18" viewBox="0 0 19 18" fill="none" xmlns="http://www.w3.org/2000/svg">
<path d="M16.125 14.25H17.625V15.75H1.125V14.25H2.625V3C2.625 2.79 2.6975 2.6125 2.8425 2.4675C2.9875 2.3225 3.165 2.25 3.375 2.25H10.875C11.085 2.25 11.2625 2.3225 11.4075 2.4675C11.5525 2.6125 11.625 2.79 11.625 3V14.25H14.625V8.25H13.125V6.75H15.375C15.585 6.75 15.7625 6.8225 15.9075 6.9675C16.0525 7.1125 16.125 7.29 16.125 7.5V14.25ZM4.125 3.75V14.25H10.125V3.75H4.125ZM5.625 8.25H8.625V9.75H5.625V8.25ZM5.625 5.25H8.625V6.75H5.625V5.25Z" fill="#818CF8"/>
</svg>
